<svg width="1094" height="504" viewBox="0 0 1094 504" fill="none" xmlns="http://www.w3.org/2000/svg">
<path d="M0.5 379V-8.10623e-06H46V379H0.5ZM213.953 384C195.62 384 178.953 380.583 163.953 373.75C149.12 366.917 136.37 357.417 125.703 345.25C115.203 332.917 107.12 318.5 101.453 302C95.7865 285.333 92.9531 267.167 92.9531 247.5C92.9531 220.5 97.8698 197.167 107.703 177.5C117.703 157.667 131.87 142.417 150.203 131.75C168.536 120.917 190.286 115.5 215.453 115.5C232.62 115.5 247.786 119.333 260.953 127C274.12 134.5 284.703 144.833 292.703 158C300.87 171 305.87 185.833 307.703 202.5C309.703 219 307.953 236.167 302.453 254H157.453C160.953 244.5 165.87 236.583 172.203 230.25C178.703 223.75 187.953 220.5 199.953 220.5H263.453C264.953 207.667 263.453 196.083 258.953 185.75C254.62 175.25 248.12 166.917 239.453 160.75C230.953 154.583 221.286 151.5 210.453 151.5C196.453 151.5 184.12 155.25 173.453 162.75C162.786 170.25 154.453 181.25 148.453 195.75C142.453 210.083 139.453 227.5 139.453 248C139.453 267.833 142.87 285.25 149.703 300.25C156.703 315.25 166.203 327 178.203 335.5C190.203 343.833 203.786 348 218.953 348C230.453 348 241.37 346.833 251.703 344.5C262.036 342 274.286 337.167 288.453 330L300.953 363C284.953 371.167 269.453 376.667 254.453 379.5C239.453 382.5 225.953 384 213.953 384ZM446.426 504C433.426 504 419.176 502.583 403.676 499.75C388.342 497.083 372.426 491.5 355.926 483L368.926 449C383.259 456 396.426 460.917 408.426 463.75C420.592 466.583 431.926 468 442.426 468C456.426 468 469.259 465 480.926 459C492.592 453 501.926 443.833 508.926 431.5C515.926 419.167 519.426 403.5 519.426 384.5V157C511.759 155 504.509 153.583 497.676 152.75C491.009 151.917 483.926 151.5 476.426 151.5C451.426 151.5 431.259 160.083 415.926 177.25C400.592 194.417 392.926 219 392.926 251C392.926 269.833 395.426 286.667 400.426 301.5C405.592 316.167 413.259 327.5 423.426 335.5C433.759 343.5 446.592 346.667 461.926 345C469.259 344.167 476.342 345.167 483.176 348C490.009 350.833 496.426 356 502.426 363.5C494.259 369 485.759 373.25 476.926 376.25C468.092 379.25 459.926 381.167 452.426 382C437.592 383.167 423.592 380.917 410.426 375.25C397.426 369.417 385.926 360.667 375.926 349C365.926 337.333 358.092 323.167 352.426 306.5C346.759 289.833 343.926 271.333 343.926 251C343.926 223.833 349.592 200.083 360.926 179.75C372.259 159.417 387.842 143.667 407.676 132.5C427.676 121.167 450.592 115.5 476.426 115.5C485.759 115.5 495.009 116.083 504.176 117.25C513.342 118.25 522.842 119.917 532.676 122.25C542.676 124.583 553.426 127.667 564.926 131.5V379C564.926 403.833 560.092 425.583 550.426 444.25C540.926 463.083 527.259 477.75 509.426 488.25C491.759 498.75 470.759 504 446.426 504Z" fill="#025464"/>
<path d="M712.07 504C699.07 504 684.82 502.583 669.32 499.75C653.987 497.083 638.07 491.5 621.57 483L634.57 449C648.904 456 662.07 460.917 674.07 463.75C686.237 466.583 697.57 468 708.07 468C722.07 468 734.904 465 746.57 459C758.237 453 767.57 443.833 774.57 431.5C781.57 419.167 785.07 403.5 785.07 384.5V157C777.404 155 770.154 153.583 763.32 152.75C756.654 151.917 749.57 151.5 742.07 151.5C717.07 151.5 696.904 160.083 681.57 177.25C666.237 194.417 658.57 219 658.57 251C658.57 269.833 661.07 286.667 666.07 301.5C671.237 316.167 678.904 327.5 689.07 335.5C699.404 343.5 712.237 346.667 727.57 345C734.904 344.167 741.987 345.167 748.82 348C755.654 350.833 762.07 356 768.07 363.5C759.904 369 751.404 373.25 742.57 376.25C733.737 379.25 725.57 381.167 718.07 382C703.237 383.167 689.237 380.917 676.07 375.25C663.07 369.417 651.57 360.667 641.57 349C631.57 337.333 623.737 323.167 618.07 306.5C612.404 289.833 609.57 271.333 609.57 251C609.57 223.833 615.237 200.083 626.57 179.75C637.904 159.417 653.487 143.667 673.32 132.5C693.32 121.167 716.237 115.5 742.07 115.5C751.404 115.5 760.654 116.083 769.82 117.25C778.987 118.25 788.487 119.917 798.32 122.25C808.32 124.583 819.07 127.667 830.57 131.5V379C830.57 403.833 825.737 425.583 816.07 444.25C806.57 463.083 792.904 477.75 775.07 488.25C757.404 498.75 736.404 504 712.07 504Z" fill="#E57C23"/>
<path d="M997.215 384C978.882 384 962.215 380.583 947.215 373.75C932.382 366.917 919.632 357.417 908.965 345.25C898.465 332.917 890.382 318.5 884.715 302C879.048 285.333 876.215 267.167 876.215 247.5C876.215 220.5 881.132 197.167 890.965 177.5C900.965 157.667 915.132 142.417 933.465 131.75C951.798 120.917 973.548 115.5 998.715 115.5C1015.88 115.5 1031.05 119.333 1044.21 127C1057.38 134.5 1067.96 144.833 1075.96 158C1084.13 171 1089.13 185.833 1090.96 202.5C1092.96 219 1091.21 236.167 1085.71 254H940.715C944.215 244.5 949.132 236.583 955.465 230.25C961.965 223.75 971.215 220.5 983.215 220.5H1046.71C1048.21 207.667 1046.71 196.083 1042.21 185.75C1037.88 175.25 1031.38 166.917 1022.71 160.75C1014.21 154.583 1004.55 151.5 993.715 151.5C979.715 151.5 967.382 155.25 956.715 162.75C946.048 170.25 937.715 181.25 931.715 195.75C925.715 210.083 922.715 227.5 922.715 248C922.715 267.833 926.132 285.25 932.965 300.25C939.965 315.25 949.465 327 961.465 335.5C973.465 343.833 987.048 348 1002.21 348C1013.71 348 1024.63 346.833 1034.96 344.5C1045.3 342 1057.55 337.167 1071.71 330L1084.21 363C1068.21 371.167 1052.71 376.667 1037.71 379.5C1022.71 382.5 1009.21 384 997.215 384Z" fill="#025464"/>
<path d="M997.215 384C978.882 384 962.215 380.583 947.215 373.75C932.382 366.917 919.632 357.417 908.965 345.25C898.465 332.917 890.382 318.5 884.715 302C879.048 285.333 876.215 267.167 876.215 247.5C876.215 220.5 881.132 197.167 890.965 177.5C900.965 157.667 915.132 142.417 933.465 131.75C951.798 120.917 973.548 115.5 998.715 115.5C1015.88 115.5 1031.05 119.333 1044.21 127C1057.38 134.5 1067.96 144.833 1075.96 158C1084.13 171 1089.13 185.833 1090.96 202.5C1092.96 219 1091.21 236.167 1085.71 254H940.715C944.215 244.5 949.132 236.583 955.465 230.25C961.965 223.75 971.215 220.5 983.215 220.5H1046.71C1048.21 207.667 1046.71 196.083 1042.21 185.75C1037.88 175.25 1031.38 166.917 1022.71 160.75C1014.21 154.583 1004.55 151.5 993.715 151.5C979.715 151.5 967.382 155.25 956.715 162.75C946.048 170.25 937.715 181.25 931.715 195.75C925.715 210.083 922.715 227.5 922.715 248C922.715 267.833 926.132 285.25 932.965 300.25C939.965 315.25 949.465 327 961.465 335.5C973.465 343.833 987.048 348 1002.21 348C1013.71 348 1024.63 346.833 1034.96 344.5C1045.3 342 1057.55 337.167 1071.71 330L1084.21 363C1068.21 371.167 1052.71 376.667 1037.71 379.5C1022.71 382.5 1009.21 384 997.215 384Z" fill="#025464"/>
</svg>
