<svg width="3281" height="1512" viewBox="0 0 3281 1512" fill="none" xmlns="http://www.w3.org/2000/svg">
<path d="M0.500001 1137V-2.43187e-05H137V1137H0.500001ZM640.859 1152C585.859 1152 535.859 1141.75 490.859 1121.25C446.359 1100.75 408.109 1072.25 376.109 1035.75C344.609 998.75 320.359 955.5 303.359 906C286.359 856 277.859 801.5 277.859 742.5C277.859 661.5 292.609 591.5 322.109 532.5C352.109 473 394.609 427.25 449.609 395.25C504.609 362.75 569.859 346.5 645.359 346.5C696.859 346.5 742.359 358 781.859 381C821.359 403.5 853.109 434.5 877.109 474C901.609 513 916.609 557.5 922.109 607.5C928.109 657 922.859 708.5 906.359 762H471.359C481.859 733.5 496.609 709.75 515.609 690.75C535.109 671.25 562.859 661.5 598.859 661.5H789.359C793.859 623 789.359 588.25 775.859 557.25C762.859 525.75 743.359 500.75 717.359 482.25C691.859 463.75 662.859 454.5 630.359 454.5C588.359 454.5 551.359 465.75 519.359 488.25C487.359 510.75 462.359 543.75 444.359 587.25C426.359 630.25 417.359 682.5 417.359 744C417.359 803.5 427.609 855.75 448.109 900.75C469.109 945.75 497.609 981 533.609 1006.5C569.609 1031.5 610.359 1044 655.859 1044C690.359 1044 723.109 1040.5 754.109 1033.5C785.109 1026 821.859 1011.5 864.359 990L901.859 1089C853.859 1113.5 807.359 1130 762.359 1138.5C717.359 1147.5 676.859 1152 640.859 1152ZM1338.28 1512C1299.28 1512 1256.53 1507.75 1210.03 1499.25C1164.03 1491.25 1116.28 1474.5 1066.78 1449L1105.78 1347C1148.78 1368 1188.28 1382.75 1224.28 1391.25C1260.78 1399.75 1294.78 1404 1326.28 1404C1368.28 1404 1406.78 1395 1441.78 1377C1476.78 1359 1504.78 1331.5 1525.78 1294.5C1546.78 1257.5 1557.28 1210.5 1557.28 1153.5V471C1534.28 465 1512.53 460.75 1492.03 458.25C1472.03 455.75 1450.78 454.5 1428.28 454.5C1353.28 454.5 1292.78 480.25 1246.78 531.75C1200.78 583.25 1177.78 657 1177.78 753C1177.78 809.5 1185.28 860 1200.28 904.5C1215.78 948.5 1238.78 982.5 1269.28 1006.5C1300.28 1030.5 1338.78 1040 1384.78 1035C1406.78 1032.5 1428.03 1035.5 1448.53 1044C1469.03 1052.5 1488.28 1068 1506.28 1090.5C1481.78 1107 1456.28 1119.75 1429.78 1128.75C1403.28 1137.75 1378.78 1143.5 1356.28 1146C1311.78 1149.5 1269.78 1142.75 1230.28 1125.75C1191.28 1108.25 1156.78 1082 1126.78 1047C1096.78 1012 1073.28 969.5 1056.28 919.5C1039.28 869.5 1030.78 814 1030.78 753C1030.78 671.5 1047.78 600.25 1081.78 539.25C1115.78 478.25 1162.53 431 1222.03 397.5C1282.03 363.5 1350.78 346.5 1428.28 346.5C1456.28 346.5 1484.03 348.25 1511.53 351.75C1539.03 354.75 1567.53 359.75 1597.03 366.75C1627.03 373.75 1659.28 383 1693.78 394.5V1137C1693.78 1211.5 1679.28 1276.75 1650.28 1332.75C1621.78 1389.25 1580.78 1433.25 1527.28 1464.75C1474.28 1496.25 1411.28 1512 1338.28 1512ZM2990.64 1152C2935.64 1152 2885.64 1141.75 2840.64 1121.25C2796.14 1100.75 2757.89 1072.25 2725.89 1035.75C2694.39 998.75 2670.14 955.5 2653.14 906C2636.14 856 2627.64 801.5 2627.64 742.5C2627.64 661.5 2642.39 591.5 2671.89 532.5C2701.89 473 2744.39 427.25 2799.39 395.25C2854.39 362.75 2919.64 346.5 2995.14 346.5C3046.64 346.5 3092.14 358 3131.64 381C3171.14 403.5 3202.89 434.5 3226.89 474C3251.39 513 3266.39 557.5 3271.89 607.5C3277.89 657 3272.64 708.5 3256.14 762H2821.14C2831.64 733.5 2846.39 709.75 2865.39 690.75C2884.89 671.25 2912.64 661.5 2948.64 661.5H3139.14C3143.64 623 3139.14 588.25 3125.64 557.25C3112.64 525.75 3093.14 500.75 3067.14 482.25C3041.64 463.75 3012.64 454.5 2980.14 454.5C2938.14 454.5 2901.14 465.75 2869.14 488.25C2837.14 510.75 2812.14 543.75 2794.14 587.25C2776.14 630.25 2767.14 682.5 2767.14 744C2767.14 803.5 2777.39 855.75 2797.89 900.75C2818.89 945.75 2847.39 981 2883.39 1006.5C2919.39 1031.5 2960.14 1044 3005.64 1044C3040.14 1044 3072.89 1040.5 3103.89 1033.5C3134.89 1026 3171.64 1011.5 3214.14 990L3251.64 1089C3203.64 1113.5 3157.14 1130 3112.14 1138.5C3067.14 1147.5 3026.64 1152 2990.64 1152Z" fill="#FCFDFD"/>
<path d="M2135.21 1512C2096.21 1512 2053.46 1507.75 2006.96 1499.25C1960.96 1491.25 1913.21 1474.5 1863.71 1449L1902.71 1347C1945.71 1368 1985.21 1382.75 2021.21 1391.25C2057.71 1399.75 2091.71 1404 2123.21 1404C2165.21 1404 2203.71 1395 2238.71 1377C2273.71 1359 2301.71 1331.5 2322.71 1294.5C2343.71 1257.5 2354.21 1210.5 2354.21 1153.5V471C2331.21 465 2309.46 460.75 2288.96 458.25C2268.96 455.75 2247.71 454.5 2225.21 454.5C2150.21 454.5 2089.71 480.25 2043.71 531.75C1997.71 583.25 1974.71 657 1974.71 753C1974.71 809.5 1982.21 860 1997.21 904.5C2012.71 948.5 2035.71 982.5 2066.21 1006.5C2097.21 1030.5 2135.71 1040 2181.71 1035C2203.71 1032.5 2224.96 1035.5 2245.46 1044C2265.96 1052.5 2285.21 1068 2303.21 1090.5C2278.71 1107 2253.21 1119.75 2226.71 1128.75C2200.21 1137.75 2175.71 1143.5 2153.21 1146C2108.71 1149.5 2066.71 1142.75 2027.21 1125.75C1988.21 1108.25 1953.71 1082 1923.71 1047C1893.71 1012 1870.21 969.5 1853.21 919.5C1836.21 869.5 1827.71 814 1827.71 753C1827.71 671.5 1844.71 600.25 1878.71 539.25C1912.71 478.25 1959.46 431 2018.96 397.5C2078.96 363.5 2147.71 346.5 2225.21 346.5C2253.21 346.5 2280.96 348.25 2308.46 351.75C2335.96 354.75 2364.46 359.75 2393.96 366.75C2423.96 373.75 2456.21 383 2490.71 394.5V1137C2490.71 1211.5 2476.21 1276.75 2447.21 1332.75C2418.71 1389.25 2377.71 1433.25 2324.21 1464.75C2271.21 1496.25 2208.21 1512 2135.21 1512Z" fill="#E57C23"/>
</svg>
